<?xml version="1.0" encoding="utf-8"?>
<!-- Generator: Adobe Illustrator 25.0.0, SVG Export Plug-In . SVG Version: 6.00 Build 0)  -->
<svg version="1.1" id="Layer_1" xmlns="http://www.w3.org/2000/svg" xmlns:xlink="http://www.w3.org/1999/xlink" x="0px" y="0px"
	 viewBox="0 0 384 512" style="enable-background:new 0 0 384 512;" xml:space="preserve">
<style type="text/css">
	.st0{fill:#008700;}
</style>
<path d="M365,125L259,19C247,7,230,0,214,0H64C29,0,0,29,0,64v384c0,35,29,64,64,64h256c35,0,64-29,64-64V170
	C384,154,377,137,365,125z M343,148c3,3,5,8,7,12H240c-9,0-16-7-16-16V34c4,2,9,4,12,7L343,148z M352,448c0,18-14,32-32,32H64
	c-18,0-32-14-32-32V64c0-18,14-32,32-32h128v112c0,26,22,48,48,48h112V448z"/>
<g>
	<path d="M114.9,400.7h-23v11h18.2v9.2H91.9v19.3h-12V391h35V400.7z"/>
	<path d="M155.9,400.7h-23v11H151v9.2h-18.2v19.3h-12V391h35V400.7z"/>
	<path d="M177.2,440.2l-9.2-30.5v30.5h-7.4v-37.5h13.7l6.6,22.4l6.9-22.4h13.7v37.5h-8.8v-30.5l-9.4,30.5H177.2z"/>
	<path d="M217.8,426.3v13.9h-8.9v-37.5h14.8c3.3,0,5.8,0.4,7.6,1.1c1.7,0.7,3.3,2,4.7,3.8c1.4,1.8,2.1,4,2.1,6.7
		c0,1.8-0.4,3.7-1.1,5.4c-0.7,1.8-1.8,3.1-3.1,4.1c-1.3,1-2.6,1.7-3.9,2c-1.3,0.3-3.2,0.5-5.9,0.5H217.8z M217.5,419.5h5.7
		c2.2,0,3.7-0.5,4.6-1.5c0.9-1,1.3-2.2,1.3-3.5c0-1.5-0.5-2.7-1.5-3.6c-1-0.9-2.5-1.3-4.5-1.3h-5.7V419.5z"/>
	<path d="M269.6,409.9h-17.9v7.7h14.1v7.1h-14.1v8.2h17.9v7.4h-26.8v-37.5h26.8V409.9z"/>
	<path d="M304.1,420.2v20h-4c-0.3-1.4-0.7-2.8-1.3-4.3c-2.7,3.3-6.1,4.9-10.2,4.9c-4.9,0-8.7-1.7-11.4-5.2c-2.7-3.5-4.1-8-4.1-13.6
		c0-6,1.5-10.8,4.4-14.4c2.9-3.6,6.8-5.4,11.8-5.4c4.2,0,7.5,1.2,10.1,3.5c2.6,2.3,4.1,5.5,4.7,9.4l-8.3,1.1
		c-0.7-4.5-2.8-6.8-6.4-6.8c-2.4,0-4.2,1.1-5.4,3.2c-1.2,2.1-1.8,5.2-1.8,9.2c0,3.8,0.7,6.8,2,8.8c1.3,2,3.2,3,5.6,3
		c1.6,0,3-0.5,4.2-1.5c1.2-1,1.9-2.7,1.9-4.9h-7.1v-7H304.1z"/>
</g>
<g>
	<path class="st0" d="M262.6,378.4h-47c-4.3,0-8.1-2.6-9.8-6.5c-1.6-4-0.7-8.5,2.3-11.5l43.9-43.9v-17.1l-76,76
		c-2,2-4.7,3.1-7.5,3.1h-47c-4.3,0-8.1-2.6-9.8-6.5c-1.6-4-0.7-8.5,2.3-11.5l123-123h-17.1l-91,91c-3,3-7.6,3.9-11.5,2.3
		c-4-1.6-6.5-5.5-6.5-9.8v-47c0-2.8,1.1-5.5,3.1-7.5l29-29h-21.5c-5.8,0-10.6-4.7-10.6-10.6s4.7-10.6,10.6-10.6h47
		c4.3,0,8.1,2.6,9.8,6.5c1.6,4,0.7,8.5-2.3,11.5L132,278.1v17.1l76-76c2-2,4.7-3.1,7.5-3.1h47c4.3,0,8.1,2.6,9.8,6.5
		c1.6,4,0.7,8.5-2.3,11.5l-123,123h17.1l91-91c3-3,7.6-3.9,11.5-2.3c4,1.6,6.5,5.5,6.5,9.8v47c0,2.8-1.1,5.5-3.1,7.5l-29,29h21.5
		c5.8,0,10.6,4.7,10.6,10.6C273.1,373.7,268.4,378.4,262.6,378.4z"/>
</g>
</svg>
