<svg xmlns="http://www.w3.org/2000/svg" viewBox="0 0 257.14 242.13"><defs><style>.a{fill:#575756;}.b{fill:#e40046;}</style></defs><title>cr_logo</title><path class="a" d="M411.69,542.24a14,14,0,0,1-9.9-4.1L323.66,460a14,14,0,0,1,9.9-23.9,54,54,0,1,0-48.49-77.81A14,14,0,0,1,260,345.93,82,82,0,1,1,362.2,459l59.39,59.39a14,14,0,0,1-9.9,23.9Z" transform="translate(-168.56 -300.11)"/><path class="b" d="M250.56,542.11a82,82,0,1,1,63-134.44,14,14,0,1,1-21.52,17.91,54,54,0,1,0,.88,68,14,14,0,0,1,22,17.36A81.59,81.59,0,0,1,250.56,542.11Z" transform="translate(-168.56 -300.11)"/></svg>